<?xml version="1.0" ?><svg height="20" version="1.1" viewBox="0 0 20 20" width="20" xmlns="http://www.w3.org/2000/svg"><g id="layer1"><path d="M 2.4882812,3 A 0.50005,0.50005 0 0 0 2,3.5 v 13 a 0.50005,0.50005 0 0 0 0.7734375,0.419922 L 7,14.171875 V 16.5 a 0.50005,0.50005 0 0 0 0.7734375,0.419922 l 10.0000005,-6.5 a 0.50005,0.50005 0 0 0 0,-0.8398439 l -10.0000005,-6.5 A 0.50005,0.50005 0 0 0 7,3.5 V 5.828125 L 2.7734375,3.0800781 A 0.50005,0.50005 0 0 0 2.4882812,3 Z M 3,4.421875 7.2265625,7.1699219 A 0.50005,0.50005 0 0 0 8,6.75 V 4.421875 L 16.580078,10 8,15.578125 V 13.25 A 0.50005,0.50005 0 0 0 7.2265625,12.830078 L 3,15.578125 Z" style="fill:#222222; fill-opacity:1; stroke:none; stroke-width:0px;"/></g></svg>