<?xml version="1.0" ?><!DOCTYPE svg  PUBLIC '-//W3C//DTD SVG 1.1//EN'  'http://www.w3.org/Graphics/SVG/1.1/DTD/svg11.dtd'><svg enable-background="new 0 0 91 91" height="91px" id="Layer_1" version="1.1" viewBox="0 0 91 91" width="91px" xml:space="preserve" xmlns="http://www.w3.org/2000/svg" xmlns:xlink="http://www.w3.org/1999/xlink"><g><path d="M3.768,35.051c0.248-0.027,0.491-0.06,0.739-0.088c-0.341,3.221-0.525,6.464-0.674,9.695   C3.614,49.49,2.863,54.688,3.259,59.51c0.355,4.326,3.964,4.664,7.526,4.703c2.415,0.027,4.837,0.07,7.253,0.049   c0.98-0.01,1.938-0.018,2.815-0.254c7.583,5.33,16.489,8.352,23.972,13.859c1.759,1.293,4.292-0.457,4.253-2.443   c-0.389-19.918-1.271-39.852-0.84-59.778c0.033-1.683-1.952-2.84-3.39-1.944c-7.656,4.757-15.4,9.332-22.6,14.743   c-0.667-0.833-1.69-1.371-3.295-1.397c-4.992-0.086-10.191,0.801-15.186,1.102C-0.704,28.419-0.582,35.543,3.768,35.051z    M43.51,19.595c-0.819,16.819,0.05,33.618-0.029,50.442c-6.382-4.096-19.526-12.139-19.634-12.211   c0.04-2.652,0.058-5.305,0.048-7.957c-0.016-4.963-0.131-9.929-0.326-14.889c-0.048-1.265-0.064-2.616-0.265-3.839   C29.828,26.957,36.713,23.329,43.51,19.595z M17.409,33.484c0.247,2.329,0.041,23.352,0.297,24.709   c-1.319-0.256-8.95,0.09-9.034,0.084c-0.04-0.664-0.43-7.703-0.579-10.559C7.87,43.36,7.694,38.981,7.248,34.637   C8.807,34.452,16.714,33.549,17.409,33.484z"/><path d="M54.703,61.041c-4.897,1.84-2.094,8.764,2.811,6.672c10.747-4.582,18.431-15.297,15.737-27.194   c-1.183-5.216-4.357-9.779-8.768-12.781c-1.881-1.281-7.843-5.196-10.177-3.408c-0.408,0.312-0.603,0.697-0.494,1.213   c0.443,2.154,4.841,3.455,6.453,4.621c3.496,2.528,6.222,5.976,7.197,10.233C69.599,49.717,63.165,57.857,54.703,61.041z"/><path d="M71.41,11.297c-2.849-1.618-5.885-2.91-8.971-3.998c-2.349-0.83-5.018-1.969-7.544-1.65   c-0.861,0.109-1.496,1.126-0.759,1.836c2.915,2.811,8.035,3.691,11.598,5.601c5.055,2.709,9.738,6.37,12.969,11.161   c8.972,13.304,7.326,31.65-3.522,43.273c-4.79,5.131-10.906,9.418-17.566,11.732c-4.431,1.541-2.451,8.676,1.94,7.041   C74.058,80.893,87.6,67.994,90.044,52.223C92.521,36.229,85.657,19.393,71.41,11.297z"/></g></svg>