<?xml version="1.0" ?><svg height="20" version="1.1" viewBox="0 0 20 20" width="20" xmlns="http://www.w3.org/2000/svg"><g id="layer1"><path d="M 3.5 3 A 0.50005 0.50005 0 0 0 3 3.5 L 3 16.5 A 0.50005 0.50005 0 0 0 3.5 17 L 8.5 17 A 0.50005 0.50005 0 0 0 9 16.5 L 9 3.5 A 0.50005 0.50005 0 0 0 8.5 3 L 3.5 3 z M 11.5 3 A 0.50005 0.50005 0 0 0 11 3.5 L 11 16.5 A 0.50005 0.50005 0 0 0 11.5 17 L 16.5 17 A 0.50005 0.50005 0 0 0 17 16.5 L 17 3.5 A 0.50005 0.50005 0 0 0 16.5 3 L 11.5 3 z M 4 4 L 8 4 L 8 16 L 4 16 L 4 4 z M 12 4 L 16 4 L 16 16 L 12 16 L 12 4 z " style="fill:#222222; fill-opacity:1; stroke:none; stroke-width:0px;"/></g></svg>